<svg width="96" height="86" viewBox="0 0 96 86" xmlns="http://www.w3.org/2000/svg"><path d="M17.552 0C6.448 0 0 5.439 0 15.59c0 9.065 5.731 15.23 15.045 15.23 5.373 0 9.313-1.813 11.463-5.439 2.149 2.9 3.582 7.614 3.582 14.866 0 15.59-5.015 29.73-17.553 42.783-1.433 1.45 1.075 3.988 2.866 2.538 16.12-15.953 26.15-32.27 26.15-52.935C41.552 11.24 32.596 0 17.552 0zM72 0C60.896 0 54.448 5.439 54.448 15.59c0 9.065 5.731 15.229 15.045 15.229 5.373 0 9.313-1.813 11.462-5.439 2.15 2.9 3.582 7.614 3.582 14.866 0 15.59-5.015 29.73-17.552 42.783-1.433 1.45 1.075 3.988 2.866 2.538C85.97 69.614 96 53.297 96 32.632 96 11.24 87.045 0 72 0z"/></svg>