<svg width="517" height="631" viewBox="0 0 517 631" fill="none" xmlns="http://www.w3.org/2000/svg">
<path fill-rule="evenodd" clip-rule="evenodd" d="M0.699838 557.109C0.475794 557.356 0.251398 557.603 0.0266669 557.85C61.6363 608.918 142.61 636.69 228.635 629.16C402.01 613.984 530.252 461.172 515.073 287.843C499.894 114.514 347.041 -13.6946 173.666 1.48077C107.428 7.27859 47.7768 33.1668 0.194975 72.614C0.419815 72.8606 0.644323 73.1075 0.868496 73.3547C48.2934 34.0495 107.742 8.25493 173.753 2.47696C346.578 -12.6502 498.946 115.152 514.077 287.93C529.208 460.708 401.372 613.036 228.548 628.164C142.811 635.668 62.1096 607.997 0.699838 557.109Z" fill="#646E73"/>
</svg>
