<svg width="517" height="631" viewBox="0 0 517 631" xmlns="http://www.w3.org/2000/svg"><path fill-rule="evenodd" clip-rule="evenodd" d="M.7 557.109l-.673.741c61.61 51.068 142.583 78.84 228.608 71.31 173.375-15.176 301.617-167.988 286.438-341.317C499.894 114.514 347.041-13.695 173.666 1.481 107.428 7.279 47.776 33.167.195 72.614c.225.247.45.493.673.74C48.293 34.05 107.742 8.255 173.753 2.478 346.578-12.65 498.946 115.152 514.077 287.93c15.131 172.778-112.705 325.106-285.529 340.234C142.811 635.668 62.11 607.997.7 557.109z"/></svg>