<svg width="1259" height="188" viewBox="0 0 1259 188" xmlns="http://www.w3.org/2000/svg"><path fill-rule="evenodd" clip-rule="evenodd" d="M171.965 32.675c-70.632 9.198-125.288 72.131-125.288 148.4 0 2.321.05 4.63.15 6.925H3.478C1.208 175.828 0 163.05 0 149.874 0 67.281 47.489.319 106.065.319c24.907 0 47.801 12.102 65.9 32.356zm914.145 0c70.63 9.198 125.29 72.131 125.29 148.4 0 2.321-.05 4.63-.15 6.925h43.35c2.27-12.172 3.48-24.95 3.48-38.126 0-82.593-47.49-149.555-106.07-149.555-24.91 0-47.8 12.102-65.9 32.356z"/><path fill-rule="evenodd" clip-rule="evenodd" d="M1086.11 32.675a138.104 138.104 0 00-17.89-1.155C989.12 31.52 925 98.482 925 181.075c0 2.321.051 4.63.151 6.925h124.259c-2.27-12.172-3.48-24.95-3.48-38.126 0-47.488 15.71-89.808 40.18-117.199zm-914.145 0a138.162 138.162 0 0117.896-1.155c79.095 0 143.215 66.962 143.215 149.555 0 2.321-.051 4.63-.151 6.925H208.667c2.269-12.172 3.478-24.95 3.478-38.126 0-47.488-15.71-89.808-40.18-117.199z"/></svg>