<svg width="474" height="585" viewBox="0 0 474 585" fill="none" xmlns="http://www.w3.org/2000/svg">
<path opacity="0.5" fill-rule="evenodd" clip-rule="evenodd" d="M3.74353 326.508C22.3194 486.13 166.777 600.47 326.399 581.894C381.606 575.47 431.396 553.987 472.144 522.027C472.464 522.2 472.784 522.373 473.104 522.545C432.153 554.764 382.066 576.423 326.515 582.888C166.344 601.527 21.3899 486.794 2.75023 326.624C-15.8895 166.453 98.8439 21.4988 259.014 2.85913C334.791 -5.95928 407.161 15.0741 464.362 56.6478C464.048 56.8316 463.735 57.016 463.422 57.201C406.472 15.9393 334.491 -4.91767 259.13 3.85243C99.508 22.4283 -14.8323 166.886 3.74353 326.508Z" fill="#646E73"/>
</svg>
