<svg width="14" height="16" viewBox="0 0 14 16" xmlns="http://www.w3.org/2000/svg"><path d="M7.354.013C8.226 0 9.094.009 9.96 0c.053 1.02.42 2.06 1.167 2.781.745.74 1.8 1.079 2.826 1.193v2.684c-.962-.031-1.928-.231-2.8-.645a8.102 8.102 0 01-1.08-.62c-.005 1.948.007 3.894-.013 5.833a5.075 5.075 0 01-.902 2.628c-.872 1.279-2.385 2.112-3.94 2.138-.953.055-1.906-.206-2.718-.685C1.153 14.514.206 13.06.068 11.5a11.15 11.15 0 01-.008-.992 4.998 4.998 0 011.72-3.307c1.104-.962 2.65-1.42 4.099-1.149.013.988-.026 1.974-.026 2.962-.662-.214-1.435-.154-2.013.247a2.309 2.309 0 00-.91 1.167c-.137.337-.098.713-.09 1.072.159 1.094 1.21 2.014 2.334 1.914.744-.008 1.458-.44 1.846-1.072.125-.222.266-.449.273-.709.066-1.192.04-2.38.048-3.572.005-2.688-.008-5.368.012-8.047z"/></svg>