<svg width="18" height="18" viewBox="0 0 18 18" xmlns="http://www.w3.org/2000/svg"><path d="M17.201 5.613a5.989 5.989 0 00-.384-2.031 4.227 4.227 0 00-2.413-2.414A6.056 6.056 0 0012.4.783c-.882-.04-1.162-.05-3.4-.05-2.239 0-2.525 0-3.4.05a6.056 6.056 0 00-2.004.385 4.223 4.223 0 00-2.413 2.414 6.008 6.008 0 00-.384 2.003c-.04.882-.052 1.162-.052 3.4 0 2.239 0 2.525.052 3.401a6.03 6.03 0 00.384 2.005 4.227 4.227 0 002.414 2.413c.64.25 1.317.39 2.003.412.883.04 1.162.051 3.4.051 2.24 0 2.526 0 3.402-.05a6.041 6.041 0 002.004-.385 4.23 4.23 0 002.413-2.414 6.04 6.04 0 00.384-2.004c.04-.882.052-1.162.052-3.401-.002-2.239-.002-2.523-.054-3.4zm-8.207 7.606A4.237 4.237 0 014.757 8.98a4.237 4.237 0 114.237 4.238zm4.407-7.644a.987.987 0 11-.003-1.974.987.987 0 01.003 1.973z"/></svg>