<svg width="14" height="16" viewBox="0 0 14 16" xmlns="http://www.w3.org/2000/svg"><path d="M7.354.013C8.227 0 9.094.009 9.961 0c.052 1.02.419 2.06 1.166 2.781.745.74 1.8 1.079 2.826 1.193v2.684c-.961-.031-1.928-.231-2.8-.645a8.102 8.102 0 01-1.08-.62c-.005 1.948.008 3.894-.013 5.833a5.075 5.075 0 01-.901 2.628c-.872 1.279-2.386 2.112-3.94 2.138-.954.055-1.906-.206-2.719-.685C1.154 14.514.206 13.06.068 11.5a11.15 11.15 0 01-.008-.992 4.998 4.998 0 011.722-3.307c1.104-.962 2.65-1.42 4.098-1.149.014.988-.026 1.974-.026 2.962-.661-.214-1.434-.154-2.012.247a2.309 2.309 0 00-.91 1.167c-.138.337-.098.713-.09 1.072.158 1.094 1.21 2.014 2.333 1.914.745-.008 1.458-.44 1.846-1.072.126-.222.266-.449.274-.709.065-1.192.039-2.38.047-3.572.006-2.688-.008-5.368.013-8.047h-.001z"/></svg>