<?xml version="1.0" encoding="utf-8"?><svg viewBox="0 0 200 200" xmlns="http://www.w3.org/2000/svg" xmlns:xlink="http://www.w3.org/1999/xlink"><style>:root>svg{display:none}:root>svg:target{display:block}</style><svg viewBox="0 0 23 26" id="ic-arrow-right-primary" xmlns="http://www.w3.org/2000/svg"><path d="M23 13L.5 25.99V.01L23 13z"/></svg><svg viewBox="0 0 22 15" id="ic-plus" xmlns="http://www.w3.org/2000/svg"><path stroke="#646E73" stroke-width="1.684" d="M0 7.158h22M11.158 15V0"/></svg><svg viewBox="0 0 42 34" id="ic-plus-2" xmlns="http://www.w3.org/2000/svg"><path stroke="#646E73" stroke-width="1.684" d="M0 16.636h41.6M21.758 34V0"/></svg><svg viewBox="0 0 60 60" id="ic-slider-arrow-next" xmlns="http://www.w3.org/2000/svg"><circle cx="30" cy="30" r="29.5" stroke="#DDA288"/><path d="M37.5 35l4.5-5.263m0 0L37.5 25m4.5 4.737H18" stroke="#DDA288" stroke-linecap="round" stroke-linejoin="round"/></svg><svg viewBox="0 0 60 60" id="ic-slider-arrow-prev" xmlns="http://www.w3.org/2000/svg"><circle r="29.5" transform="matrix(-1 0 0 1 30 30)" stroke="#DDA288"/><path d="M22.5 35L18 29.737m0 0L22.5 25M18 29.737h24" stroke="#DDA288" stroke-linecap="round" stroke-linejoin="round"/></svg><svg viewBox="0 0 100 100" preserveAspectRatio="xMidYMid" id="ic-spinner" xmlns="http://www.w3.org/2000/svg"><rect x="49.5" y="27" rx=".42" ry=".42" width="1" height="14"><animate attributeName="opacity" values="1;0" keyTimes="0;1" dur="1s" begin="-0.9411764705882353s" repeatCount="indefinite"/></rect><rect x="49.5" y="27" rx=".42" ry=".42" width="1" height="14" transform="rotate(21.176 50 50)"><animate attributeName="opacity" values="1;0" keyTimes="0;1" dur="1s" begin="-0.8823529411764706s" repeatCount="indefinite"/></rect><rect x="49.5" y="27" rx=".42" ry=".42" width="1" height="14" transform="rotate(42.353 50 50)"><animate attributeName="opacity" values="1;0" keyTimes="0;1" dur="1s" begin="-0.8235294117647058s" repeatCount="indefinite"/></rect><rect x="49.5" y="27" rx=".42" ry=".42" width="1" height="14" transform="rotate(63.53 50 50)"><animate attributeName="opacity" values="1;0" keyTimes="0;1" dur="1s" begin="-0.7647058823529411s" repeatCount="indefinite"/></rect><rect x="49.5" y="27" rx=".42" ry=".42" width="1" height="14" transform="rotate(84.706 50 50)"><animate attributeName="opacity" values="1;0" keyTimes="0;1" dur="1s" begin="-0.7058823529411765s" repeatCount="indefinite"/></rect><rect x="49.5" y="27" rx=".42" ry=".42" width="1" height="14" transform="rotate(105.882 50 50)"><animate attributeName="opacity" values="1;0" keyTimes="0;1" dur="1s" begin="-0.6470588235294118s" repeatCount="indefinite"/></rect><rect x="49.5" y="27" rx=".42" ry=".42" width="1" height="14" transform="rotate(127.059 50 50)"><animate attributeName="opacity" values="1;0" keyTimes="0;1" dur="1s" begin="-0.5882352941176471s" repeatCount="indefinite"/></rect><rect x="49.5" y="27" rx=".42" ry=".42" width="1" height="14" transform="rotate(148.235 50 50)"><animate attributeName="opacity" values="1;0" keyTimes="0;1" dur="1s" begin="-0.5294117647058824s" repeatCount="indefinite"/></rect><rect x="49.5" y="27" rx=".42" ry=".42" width="1" height="14" transform="rotate(169.412 50 50)"><animate attributeName="opacity" values="1;0" keyTimes="0;1" dur="1s" begin="-0.47058823529411764s" repeatCount="indefinite"/></rect><rect x="49.5" y="27" rx=".42" ry=".42" width="1" height="14" transform="rotate(190.588 50 50)"><animate attributeName="opacity" values="1;0" keyTimes="0;1" dur="1s" begin="-0.4117647058823529s" repeatCount="indefinite"/></rect><rect x="49.5" y="27" rx=".42" ry=".42" width="1" height="14" transform="rotate(211.765 50 50)"><animate attributeName="opacity" values="1;0" keyTimes="0;1" dur="1s" begin="-0.35294117647058826s" repeatCount="indefinite"/></rect><rect x="49.5" y="27" rx=".42" ry=".42" width="1" height="14" transform="rotate(232.941 50 50)"><animate attributeName="opacity" values="1;0" keyTimes="0;1" dur="1s" begin="-0.29411764705882354s" repeatCount="indefinite"/></rect><rect x="49.5" y="27" rx=".42" ry=".42" width="1" height="14" transform="rotate(254.118 50 50)"><animate attributeName="opacity" values="1;0" keyTimes="0;1" dur="1s" begin="-0.23529411764705882s" repeatCount="indefinite"/></rect><rect x="49.5" y="27" rx=".42" ry=".42" width="1" height="14" transform="rotate(275.294 50 50)"><animate attributeName="opacity" values="1;0" keyTimes="0;1" dur="1s" begin="-0.17647058823529413s" repeatCount="indefinite"/></rect><rect x="49.5" y="27" rx=".42" ry=".42" width="1" height="14" transform="rotate(296.47 50 50)"><animate attributeName="opacity" values="1;0" keyTimes="0;1" dur="1s" begin="-0.11764705882352941s" repeatCount="indefinite"/></rect><rect x="49.5" y="27" rx=".42" ry=".42" width="1" height="14" transform="rotate(317.647 50 50)"><animate attributeName="opacity" values="1;0" keyTimes="0;1" dur="1s" begin="-0.058823529411764705s" repeatCount="indefinite"/></rect><rect x="49.5" y="27" rx=".42" ry=".42" width="1" height="14" transform="rotate(338.824 50 50)"><animate attributeName="opacity" values="1;0" keyTimes="0;1" dur="1s" begin="0s" repeatCount="indefinite"/></rect></svg></svg>