<svg width="640" height="694" viewBox="0 0 640 694" fill="none" xmlns="http://www.w3.org/2000/svg">
<path opacity="0.5" fill-rule="evenodd" clip-rule="evenodd" d="M45.1697 557.231C44.9458 557.482 44.7215 557.733 44.4968 557.983C109.871 634.858 210.245 679.966 318.428 670.494C495.814 654.963 627.025 498.573 611.494 321.187C595.963 143.8 439.573 12.5899 262.187 28.1205C174.252 35.8194 97.6648 78.1334 44.6758 140.461C44.9005 140.711 45.1249 140.962 45.3488 141.213C98.1767 79.0218 174.563 36.796 262.274 29.1167C439.11 13.6343 595.015 144.438 610.498 321.274C625.98 498.11 495.177 654.015 318.341 669.498C210.444 678.944 110.339 633.931 45.1697 557.231Z" fill="#646E73"/>
</svg>
