<svg width="1259" height="188" viewBox="0 0 1259 188" fill="none" xmlns="http://www.w3.org/2000/svg">
<path fill-rule="evenodd" clip-rule="evenodd" d="M171.965 32.6753C101.333 41.8732 46.6766 104.806 46.6766 181.075C46.6766 183.396 46.7272 185.705 46.8273 188H3.478C1.2086 175.828 0 163.05 0 149.874C0 67.2806 47.4886 0.318726 106.065 0.318726C130.972 0.318726 153.866 12.4212 171.965 32.6753Z" fill="#F9ECE4"/>
<path fill-rule="evenodd" clip-rule="evenodd" d="M1086.11 32.6753C1156.74 41.8732 1211.4 104.806 1211.4 181.075C1211.4 183.396 1211.35 185.705 1211.25 188H1254.6C1256.87 175.828 1258.08 163.05 1258.08 149.874C1258.08 67.2806 1210.59 0.318726 1152.01 0.318726C1127.1 0.318726 1104.21 12.4212 1086.11 32.6753Z" fill="#F9ECE4"/>
<path fill-rule="evenodd" clip-rule="evenodd" d="M1086.11 32.6753C1080.26 31.9101 1074.27 31.5197 1068.22 31.5197C989.12 31.5197 925 98.4816 925 181.075C925 183.396 925.051 185.705 925.151 188H1049.41C1047.14 175.828 1045.93 163.05 1045.93 149.874C1045.93 102.386 1061.64 60.066 1086.11 32.6753Z" fill="#F9ECE4"/>
<path fill-rule="evenodd" clip-rule="evenodd" d="M171.965 32.6753C177.821 31.9101 183.802 31.5197 189.861 31.5197C268.956 31.5197 333.076 98.4816 333.076 181.075C333.076 183.396 333.025 185.705 332.925 188H208.667C210.936 175.828 212.145 163.05 212.145 149.874C212.145 102.386 196.435 60.066 171.965 32.6753Z" fill="#F9ECE4"/>
</svg>
