<svg width="570" height="646" viewBox="0 0 570 646" fill="none" xmlns="http://www.w3.org/2000/svg">
<path opacity="0.5" fill-rule="evenodd" clip-rule="evenodd" d="M568.346 531.347C568.57 531.598 568.794 531.849 569.019 532.099C503.642 608.903 403.315 653.961 295.187 644.494C117.8 628.963 -13.41 472.573 2.12057 295.187C17.6511 117.8 174.041 -13.4102 351.428 2.12041C439.308 9.8145 515.855 52.0807 568.84 114.345C568.615 114.595 568.391 114.845 568.167 115.096C515.343 52.969 438.997 10.7911 351.341 3.1166C174.504 -12.3658 18.5992 118.437 3.11676 295.274C-12.3656 472.11 118.438 628.015 295.274 643.498C403.116 652.939 503.174 607.977 568.346 531.347Z" fill="#646E73"/>
</svg>
