<svg width="18" height="18" viewBox="0 0 18 18" fill="none" xmlns="http://www.w3.org/2000/svg">
<path d="M17.2014 5.613C17.1921 4.91874 17.0621 4.23138 16.8173 3.58167C16.6049 3.03364 16.2806 2.53593 15.865 2.12034C15.4494 1.70476 14.9517 1.38043 14.4037 1.16808C13.7623 0.927327 13.0848 0.797146 12.3999 0.783083C11.518 0.743666 11.2384 0.732666 8.99994 0.732666C6.76144 0.732666 6.47453 0.732666 5.59911 0.783083C4.91451 0.797249 4.23726 0.927428 3.59619 1.16808C3.04808 1.38028 2.5503 1.70456 2.13469 2.12016C1.71908 2.53577 1.39481 3.03355 1.18261 3.58167C0.941371 4.22254 0.811472 4.89993 0.798526 5.58458C0.759109 6.46733 0.747192 6.74692 0.747192 8.98542C0.747192 11.2239 0.747192 11.5099 0.798526 12.3862C0.812276 13.0719 0.941526 13.7484 1.18261 14.391C1.39516 14.9389 1.71968 15.4365 2.13543 15.852C2.55117 16.2674 3.049 16.5915 3.59711 16.8037C4.23642 17.0541 4.91378 17.1936 5.60003 17.2162C6.48278 17.2556 6.76236 17.2675 9.00086 17.2675C11.2394 17.2675 11.5263 17.2675 12.4017 17.2162C13.0866 17.2027 13.7642 17.0728 14.4055 16.8321C14.9534 16.6195 15.451 16.2951 15.8665 15.8795C16.2821 15.464 16.6065 14.9664 16.8191 14.4185C17.0602 13.7768 17.1894 13.1003 17.2032 12.4137C17.2426 11.5319 17.2545 11.2523 17.2545 9.01292C17.2527 6.77442 17.2527 6.49025 17.2014 5.613ZM8.99444 13.2186C6.65328 13.2186 4.75669 11.322 4.75669 8.98083C4.75669 6.63967 6.65328 4.74308 8.99444 4.74308C10.1184 4.74308 11.1963 5.18956 11.991 5.98429C12.7857 6.77902 13.2322 7.85691 13.2322 8.98083C13.2322 10.1048 12.7857 11.1826 11.991 11.9774C11.1963 12.7721 10.1184 13.2186 8.99444 13.2186ZM13.4009 5.5745C12.8536 5.5745 12.4127 5.13267 12.4127 4.58633C12.4127 4.45662 12.4382 4.32819 12.4879 4.20835C12.5375 4.08852 12.6103 3.97963 12.702 3.88792C12.7937 3.7962 12.9026 3.72345 13.0224 3.67381C13.1423 3.62417 13.2707 3.59862 13.4004 3.59862C13.5301 3.59862 13.6585 3.62417 13.7784 3.67381C13.8982 3.72345 14.0071 3.7962 14.0988 3.88792C14.1905 3.97963 14.2633 4.08852 14.3129 4.20835C14.3626 4.32819 14.3881 4.45662 14.3881 4.58633C14.3881 5.13267 13.9463 5.5745 13.4009 5.5745Z" fill="#DDA288"/>
</svg>
